<?xml version="1.0" encoding="utf-8"?>
<!-- Generator: Adobe Illustrator 15.0.0, SVG Export Plug-In . SVG Version: 6.00 Build 0)  -->
<!DOCTYPE svg PUBLIC "-//W3C//DTD SVG 1.1//EN" "http://www.w3.org/Graphics/SVG/1.1/DTD/svg11.dtd">
<svg version="1.1" id="PlankBalance" xmlns="http://www.w3.org/2000/svg" xmlns:xlink="http://www.w3.org/1999/xlink" x="0px"
	 y="0px" width="960px" height="640px" viewBox="0 0 960 640" enable-background="new 0 0 960 640" xml:space="preserve">
<g id="Background">
	
		<image overflow="visible" enable-background="new    " width="600" height="420" xlink:href="background.jpg"  onclick="background" transform="matrix(1.6 0 0 1.5238 -9.765625e-04 0.0029)">
	</image>
</g>
<g id="Floor">
	
		<image overflow="visible" enable-background="new    " width="960" height="40" xlink:href="floor.png"  onclick="floor" transform="matrix(0.9999 0 0 0.9999 0.0591 600.0029)">
	</image>
</g>
<g id="Palette">
	
		<image overflow="visible" enable-background="new    " width="200" height="50" id="rect_TNT" xlink:href="blocks/rectCrate.png"  onclick="rect_tnt" transform="matrix(0.9999 0 0 0.9999 70.0122 679.999)">
	</image>
	
		<image overflow="visible" enable-background="new    " width="200" height="50" id="rect_DIRT" xlink:href="blocks/rectDirt.png"  onclick="rect_dirt" transform="matrix(0.9999 0 0 0.9999 286.0005 679.999)">
	</image>
	
		<image overflow="visible" enable-background="new    " width="200" height="50" id="rect_ICE" xlink:href="blocks/rectIce.png"  onclick="rect_ice" transform="matrix(0.9999 0 0 0.9999 70.0122 771.999)">
	</image>
	
		<image overflow="visible" enable-background="new    " width="200" height="50" id="rect_Rubber" xlink:href="blocks/rectRubber.png"  onclick="rect_rubber" transform="matrix(0.9999 0 0 0.9999 507 679.999)">
	</image>
	
		<image overflow="visible" enable-background="new    " width="200" height="50" id="rect_Spikes" xlink:href="blocks/rectSpikes.png"  onclick="rect_spikes" transform="matrix(0.9999 0 0 0.9999 286.0005 771.999)">
	</image>
	
		<image overflow="visible" enable-background="new    " width="200" height="50" id="rect_Steel" xlink:href="blocks/rectSteel.png"  onclick="rect_steel" transform="matrix(0.9999 0 0 0.9999 506.998 771.999)">
	</image>
	
		<image overflow="visible" enable-background="new    " width="80" height="80" id="round_TNT" xlink:href="blocks/roundCrate.png"  onclick="round_tnt" transform="matrix(0.9999 0 0 0.9999 734 665.0029)">
	</image>
	
		<image overflow="visible" enable-background="new    " width="80" height="80" id="round_DIRT" xlink:href="blocks/roundDirt.png"  onclick="round_dirt" transform="matrix(0.9999 0 0 0.9999 849 665.0029)">
	</image>
	
		<image overflow="visible" enable-background="new    " width="80" height="80" id="round_ICE" xlink:href="blocks/roundIce.png"  onclick="round_ice" transform="matrix(0.9999 0 0 0.9999 730 757.0029)">
	</image>
	
		<image overflow="visible" enable-background="new    " width="80" height="80" id="round_Rubber" xlink:href="blocks/roundRubber.png"  onclick="round_rubber" transform="matrix(0.9999 0 0 0.9999 849 757.0029)">
	</image>
	
		<image overflow="visible" enable-background="new    " width="80" height="80" id="round_Steel" xlink:href="blocks/roundSteel.png"  onclick="round_steel" transform="matrix(0.9999 0 0 0.9999 791 836.9912)">
	</image>
	
		<image overflow="visible" enable-background="new    " width="53" height="89" id="Plank" xlink:href="totem_plank.png"  onclick="plank" transform="matrix(0.9999 0 0 0.9999 0.0591 677.9873)">
	</image>
</g>
<g id="gameObj">
	
		<image overflow="visible" enable-background="new    " width="53" height="89" xlink:href="totem_plank.png"  onclick="plank" transform="matrix(0.9999 0 0 0.9999 453.5015 59.5098)">
	</image>
	
		<image overflow="visible" enable-background="new    " width="53" height="89" xlink:href="totem_plank.png"  onclick="plank" transform="matrix(0.9999 0 0 0.9999 506.4961 212.7607)">
	</image>
	
		<image overflow="visible" enable-background="new    " width="53" height="89" xlink:href="totem_plank.png"  onclick="plank" transform="matrix(0.9999 0 0 0.9999 644.502 212.7607)">
	</image>
	
		<image overflow="visible" enable-background="new    " width="200" height="50" id="rect_Rubber_1_" xlink:href="blocks/rectRubber.png"  onclick="rect_rubber" transform="matrix(0.25 0 0 1.26 379.0049 538.752)">
	</image>
	
		<image overflow="visible" enable-background="new    " width="200" height="50" id="rect_Rubber_12_" xlink:href="blocks/rectRubber.png"  onclick="rect_rubber" transform="matrix(1.0274 0 0 2.065 296.0308 198.502)">
	</image>
	
		<image overflow="visible" enable-background="new    " width="200" height="50" id="rect_Rubber_11_" xlink:href="blocks/rectRubber.png"  onclick="rect_rubber" transform="matrix(2.0547 0 0 1 296.0312 301.752)">
	</image>
	
		<image overflow="visible" enable-background="new    " width="200" height="50" id="rect_Rubber_13_" xlink:href="blocks/rectRubber.png"  onclick="rect_rubber" transform="matrix(1.2474 0 0 1 457.5 148.501)">
	</image>
	
		<image overflow="visible" enable-background="new    " width="200" height="50" id="rect_Rubber_14_" xlink:href="blocks/rectRubber.png"  onclick="rect_rubber" transform="matrix(0.375 0 0 2.065 562.5 198.498)">
	</image>
	
		<image overflow="visible" enable-background="new    " width="200" height="50" id="rect_Rubber_10_" xlink:href="blocks/rectRubber.png"  onclick="rect_rubber" transform="matrix(0.25 0 0 1.26 574.0049 538.752)">
	</image>
	
		<image overflow="visible" enable-background="new    " width="200" height="50" id="rect_Rubber_3_" xlink:href="blocks/rectRubber.png"  onclick="rect_rubber" transform="matrix(0.25 0 0 1.26 379.0049 475.752)">
	</image>
	
		<image overflow="visible" enable-background="new    " width="200" height="50" id="rect_Rubber_2_" xlink:href="blocks/rectRubber.png"  onclick="rect_rubber" transform="matrix(0.25 0 0 1.26 574.0049 475.752)">
	</image>
	
		<image overflow="visible" enable-background="new    " width="200" height="50" id="rect_Rubber_5_" xlink:href="blocks/rectRubber.png"  onclick="rect_rubber" transform="matrix(0.25 0 0 1.26 379.0049 412.752)">
	</image>
	
		<image overflow="visible" enable-background="new    " width="200" height="50" id="rect_Rubber_4_" xlink:href="blocks/rectRubber.png"  onclick="rect_rubber" transform="matrix(0.25 0 0 1.26 574.0049 412.752)">
	</image>
	
		<image overflow="visible" enable-background="new    " width="200" height="50" id="rect_Rubber_7_" xlink:href="blocks/rectRubber.png"  onclick="rect_rubber" transform="matrix(0.25 0 0 1.26 379.0049 351.751)">
	</image>
	
		<image overflow="visible" enable-background="new    " width="200" height="50" id="rect_Rubber_6_" xlink:href="blocks/rectRubber.png"  onclick="rect_rubber" transform="matrix(0.25 0 0 1.26 574.0049 351.751)">
	</image>
	
		<text onclick="blocksToDestroy" transform="matrix(1 0 0 1 873 62.5225)" enable-background="new    " font-family="'MyriadPro-Bold'" font-size="48">11</text>
</g>
</svg>
